<svg width="18" height="10" viewBox="0 0 18 10" fill="none" xmlns="http://www.w3.org/2000/svg">
<path d="M9 8.17464L1.7275 1.09797C1.6689 1.03971 1.59932 0.993646 1.52279 0.962451C1.44626 0.931255 1.36431 0.915545 1.28167 0.916232C1.19904 0.916919 1.11735 0.933988 1.04136 0.96645C0.965359 0.998912 0.896554 1.04612 0.838923 1.10535C0.781292 1.16458 0.735979 1.23465 0.705606 1.31151C0.675234 1.38836 0.660405 1.47048 0.661978 1.55311C0.663552 1.63573 0.681495 1.71723 0.714771 1.79287C0.748047 1.86852 0.795994 1.93681 0.855838 1.9938L8.56417 9.4938C8.68085 9.60732 8.83721 9.67084 9 9.67084C9.16279 9.67084 9.31916 9.60732 9.43584 9.4938L17.1442 1.9938C17.204 1.93681 17.252 1.86852 17.2852 1.79287C17.3185 1.71723 17.3365 1.63573 17.338 1.55311C17.3396 1.47048 17.3248 1.38836 17.2944 1.31151C17.264 1.23465 17.2187 1.16458 17.1611 1.10535C17.1035 1.04612 17.0346 0.998912 16.9587 0.96645C16.8827 0.933988 16.801 0.916919 16.7183 0.916232C16.6357 0.915545 16.5537 0.931255 16.4772 0.962451C16.4007 0.993646 16.3311 1.03971 16.2725 1.09797L9 8.17464Z" fill="#FFC700"/>
</svg>
