<svg width="18" height="9" viewBox="0 0 18 9" fill="none" xmlns="http://www.w3.org/2000/svg">
<path id="Vector" d="M9 1.4962L16.2725 8.57287C16.3311 8.63113 16.4007 8.67719 16.4772 8.70839C16.5537 8.73958 16.6357 8.75529 16.7183 8.75461C16.801 8.75392 16.8826 8.73685 16.9586 8.70439C17.0346 8.67193 17.1034 8.62471 17.1611 8.56549C17.2187 8.50626 17.264 8.43619 17.2944 8.35933C17.3248 8.28247 17.3396 8.20035 17.338 8.11773C17.3364 8.0351 17.3185 7.95361 17.2852 7.87797C17.252 7.80232 17.204 7.73403 17.1442 7.67703L9.43583 0.177033C9.31915 0.0635148 9.16279 0 9 0C8.83721 0 8.68084 0.0635148 8.56416 0.177033L0.855827 7.67703C0.795984 7.73403 0.748037 7.80232 0.714762 7.87797C0.681486 7.95361 0.663544 8.0351 0.66197 8.11773C0.660397 8.20035 0.675224 8.28247 0.705597 8.35933C0.73597 8.43619 0.781282 8.50626 0.838913 8.56549C0.896544 8.62471 0.965351 8.67193 1.04135 8.70439C1.11735 8.73685 1.19903 8.75392 1.28166 8.75461C1.3643 8.75529 1.44626 8.73958 1.52278 8.70839C1.59931 8.67719 1.66889 8.63113 1.7275 8.57287L9 1.4962Z" fill="#FFC700"/>
</svg>
