<svg width="123" height="36" viewBox="0 0 123 36" fill="none" xmlns="http://www.w3.org/2000/svg">
<path d="M14.2468 12.84H13.6062V10.7531H14.2468V12.84Z" fill="#FDCB1A"/>
<path d="M14.2468 30.0806H13.6062V27.9938H14.2468V30.0806Z" fill="#FDCB1A"/>
<path d="M21.562 20.7356V20.1H23.6653V20.7356H21.562Z" fill="#FDCB1A"/>
<path d="M4.18579 20.7356V20.1H6.29097V20.7356H4.18579Z" fill="#FDCB1A"/>
<path d="M21.5677 24.4763L21.7907 24.0225L22.7583 24.4913L22.5353 24.945L21.5677 24.4763Z" fill="#FDCB1A"/>
<path d="M5.0343 16.4588L5.24406 16.0312L6.18894 16.4906L5.97918 16.9163L5.0343 16.4588Z" fill="#FDCB1A"/>
<path d="M18.0264 28.035L18.4667 27.7819L19.0071 28.7044L18.5668 28.9594L18.0264 28.035Z" fill="#FDCB1A"/>
<path d="M8.7854 12.2437L9.19926 12.0056L9.7265 12.9075L9.31264 13.1475L8.7854 12.2437Z" fill="#FDCB1A"/>
<path d="M9.77943 28.0425L10.2349 28.2694L9.75108 29.2237L9.29565 28.9969L9.77943 28.0425Z" fill="#FDCB1A"/>
<path d="M18.0396 11.7263L18.4667 11.9381L17.9942 12.8719L17.5671 12.6581L18.0396 11.7263Z" fill="#FDCB1A"/>
<path d="M6.11149 24.2569L6.3496 24.705L5.39717 25.2019L5.15906 24.7538L6.11149 24.2569Z" fill="#FDCB1A"/>
<path d="M22.3954 15.7481L22.6165 16.1681L21.6867 16.6537L21.4637 16.2337L22.3954 15.7481Z" fill="#FDCB1A"/>
<path d="M15.2598 20.7356C15.2598 21.4668 14.6626 22.0593 13.9256 22.0593C13.1886 22.0593 12.5914 21.4668 12.5914 20.7356C12.5914 20.0043 13.1886 19.41 13.9256 19.41C14.6626 19.41 15.2598 20.0043 15.2598 20.7356Z" fill="#FDCB1A"/>
<path d="M13.9955 21.1725C13.7574 21.1725 13.5665 20.9625 13.5665 20.7037C13.5665 20.445 13.7574 20.235 13.9955 20.235H20.9668C21.203 20.235 21.3958 20.445 21.3958 20.7037C21.3958 20.9625 21.203 21.1725 20.9668 21.1725H13.9955Z" fill="#FDCB1A"/>
<path d="M14.211 20.5388C14.0409 20.7019 13.8481 20.7788 13.7801 20.7094C13.7121 20.64 13.7952 20.4525 13.9653 20.2875L18.9807 15.4838C19.1508 15.3206 19.3454 15.2438 19.4116 15.3131C19.4796 15.3825 19.3964 15.5719 19.2264 15.735L14.211 20.5388Z" fill="#FDCB1A"/>
<path d="M14.2544 20.3794C14.3867 20.5106 14.3432 20.7637 14.1599 20.9475C13.9766 21.1294 13.7196 21.1725 13.5873 21.0412L9.70391 17.1881C9.57162 17.0587 9.61509 16.8037 9.79839 16.62C9.98359 16.4381 10.2387 16.395 10.371 16.5262L14.2544 20.3794Z" fill="#FDCB1A"/>
<mask id="mask0_80_7" style="mask-type:luminance" maskUnits="userSpaceOnUse" x="0" y="7" width="27" height="28">
<path d="M0.289185 7.67999H26.3356V34.08H0.289185V7.67999Z" fill="white"/>
</mask>
<g mask="url(#mask0_80_7)">
<path d="M14.9631 31.9743C8.0844 31.9987 2.41515 27.9637 2.32633 19.7981C2.26208 13.7268 8.18645 8.39997 14.2072 8.01185C13.9388 7.99497 13.6686 7.9856 13.3965 7.9856C6.15875 7.9856 0.289185 13.8075 0.289185 20.9906C0.289185 28.1718 6.15875 33.9937 13.3965 33.9937C20.6361 33.9937 26.5038 28.1718 26.5038 20.9906C26.5038 20.7187 26.4943 20.4525 26.4773 20.1862C26.0861 26.1581 21.0821 31.9518 14.9631 31.9743Z" fill="#FDCB1A"/>
</g>
<mask id="mask1_80_7" style="mask-type:luminance" maskUnits="userSpaceOnUse" x="11" y="6" width="4" height="5">
<path d="M11.6106 6.45001H14.997V10.08H11.6106V6.45001Z" fill="white"/>
</mask>
<g mask="url(#mask1_80_7)">
<path d="M12.0112 6.48187L14.7551 8.1675L12.2815 9.85125L12.9051 8.09062L12.0112 6.48187Z" fill="#FDCB1A"/>
</g>
<path d="M33.406 11.3995H36.4296C37.6579 11.3995 38.5329 11.5607 39.0526 11.8795C39.576 12.1945 39.9143 12.7645 40.0655 13.5895C40.2204 14.4145 40.2998 15.7851 40.2998 17.6995C40.2998 19.6157 40.2204 20.9845 40.0655 21.8095C39.9143 22.6307 39.576 23.2007 39.0526 23.5195C38.5329 23.8345 37.6579 23.992 36.4296 23.992H33.406V11.3995ZM36.3767 22.7845C37.2233 22.7845 37.8016 22.6982 38.1153 22.522C38.4271 22.342 38.6387 21.9257 38.7502 21.2695C38.8598 20.6095 38.9165 19.4207 38.9165 17.6995C38.9165 15.9895 38.8598 14.8026 38.7502 14.137C38.6387 13.4732 38.4252 13.0532 38.1077 12.877C37.7902 12.697 37.212 12.607 36.3767 12.607H34.7666V22.7845H36.3767Z" fill="white"/>
<path d="M44.1195 23.992V11.3995H45.5028V23.992H44.1195Z" fill="white"/>
<path d="M52.4756 24.142C51.3304 24.142 50.2797 24.0614 49.3235 23.902V22.7095C49.7506 22.7695 50.2231 22.822 50.7371 22.867C51.2549 22.9083 51.6933 22.927 52.0523 22.927C52.5399 22.927 52.9292 22.8951 53.2164 22.8295C53.5074 22.7658 53.7474 22.6458 53.9345 22.4695C54.1046 22.3158 54.218 22.0851 54.2747 21.7795C54.3295 21.4758 54.3578 21.0651 54.3578 20.5495C54.3578 19.8801 54.3314 19.4133 54.2822 19.147C54.2312 18.877 54.1178 18.6858 53.9421 18.5695C53.7644 18.4495 53.447 18.3558 52.9896 18.2845L50.8505 17.9545C50.3364 17.8701 49.9472 17.6976 49.6864 17.437C49.4294 17.1726 49.2593 16.8333 49.1799 16.417C49.1043 16.0026 49.0665 15.4476 49.0665 14.752C49.0665 13.4826 49.3349 12.5826 49.8753 12.052C50.4139 11.5233 51.2813 11.257 52.4756 11.257C53.6189 11.257 54.5544 11.3545 55.28 11.5495V12.682C54.4523 12.5376 53.6208 12.4645 52.7856 12.4645C52.2602 12.4645 51.8445 12.5095 51.5383 12.5995C51.2303 12.6895 50.996 12.8283 50.8353 13.012C50.6728 13.1976 50.567 13.4245 50.5179 13.6945C50.4725 13.9608 50.4498 14.3001 50.4498 14.7145C50.4498 15.2751 50.4725 15.6801 50.5179 15.9295C50.567 16.1808 50.6653 16.3551 50.8127 16.4545C50.9638 16.5501 51.2095 16.627 51.5534 16.687L53.617 17.017C54.1348 17.1033 54.5411 17.2326 54.834 17.407C55.1307 17.5776 55.3594 17.8701 55.5219 18.2845C55.6674 18.6351 55.7411 19.3345 55.7411 20.3845C55.7411 21.3258 55.6372 22.0645 55.4312 22.6045C55.229 23.1408 54.8907 23.5308 54.4183 23.7745C53.944 24.0183 53.2958 24.142 52.4756 24.142Z" fill="white"/>
<path d="M61.1048 23.992V12.6445H58.2853V11.3995H65.3151V12.6445H62.4881V23.992H61.1048Z" fill="white"/>
<path d="M71.8791 24.142C70.6734 24.142 69.8117 23.977 69.2939 23.647C68.7799 23.317 68.4473 22.7358 68.2961 21.8995C68.1487 21.0595 68.0769 19.6608 68.0769 17.6995C68.0769 15.7345 68.1487 14.3358 68.2961 13.4995C68.4473 12.6651 68.7799 12.082 69.2939 11.752C69.8117 11.422 70.6734 11.257 71.8791 11.257C73.0829 11.257 73.9427 11.422 74.4567 11.752C74.9745 12.082 75.3071 12.6651 75.4545 13.4995C75.6057 14.3358 75.6813 15.7345 75.6813 17.6995C75.6813 19.6608 75.6057 21.0595 75.4545 21.8995C75.3071 22.7358 74.9745 23.317 74.4567 23.647C73.9427 23.977 73.0829 24.142 71.8791 24.142ZM71.8791 22.927C72.6652 22.927 73.2114 22.837 73.5194 22.657C73.8255 22.4733 74.0277 22.0401 74.1241 21.3595C74.2243 20.6751 74.2753 19.4545 74.2753 17.6995C74.2753 15.9408 74.2243 14.7201 74.1241 14.0395C74.0277 13.3551 73.8255 12.922 73.5194 12.742C73.2114 12.5583 72.6652 12.4645 71.8791 12.4645C71.0929 12.4645 70.5449 12.5583 70.2388 12.742C69.9307 12.922 69.7267 13.3551 69.6265 14.0395C69.5301 14.7201 69.4829 15.9408 69.4829 17.6995C69.4829 19.4545 69.5301 20.6751 69.6265 21.3595C69.7267 22.0401 69.9307 22.4733 70.2388 22.657C70.5449 22.837 71.0929 22.927 71.8791 22.927Z" fill="white"/>
<path d="M79.4424 11.3995H83.2068C84.0628 11.3995 84.7053 11.5682 85.1343 11.902C85.5671 12.2376 85.8467 12.6782 85.9734 13.222C86.1037 13.7676 86.1699 14.4782 86.1699 15.352C86.1699 16.207 86.1037 16.9082 85.9734 17.452C85.8467 17.992 85.5671 18.4345 85.1343 18.7795C84.7053 19.1207 84.0628 19.2895 83.2068 19.2895H80.8257V23.992H79.4424V11.3995ZM82.8364 18.097C83.426 18.097 83.8587 17.9995 84.1365 17.8045C84.4124 17.6095 84.5901 17.3282 84.6656 16.957C84.745 16.582 84.7866 16.0476 84.7866 15.352C84.7866 14.647 84.745 14.1107 84.6656 13.7395C84.5901 13.3645 84.4162 13.0832 84.1441 12.892C83.872 12.7026 83.4411 12.607 82.8515 12.607H80.8257V18.097H82.8364Z" fill="white"/>
<path d="M89.5657 23.992V11.3995H90.949V23.992H89.5657Z" fill="white"/>
<path d="M101.134 23.992L100.242 20.497H96.3571L95.4878 23.992H94.1045L97.4229 11.3995H99.2295L102.548 23.992H101.134ZM98.3451 13.0645H98.2544L96.6897 19.2895H99.9174L98.3451 13.0645Z" fill="white"/>
<path d="M35.3412 29.63V33.1325H35.001V31.4975H32.9072V33.1325H32.5594V29.63H32.9072V31.19H35.001V29.63H35.3412Z" fill="white"/>
<path d="M38.8806 33.155C38.6331 33.155 38.4063 33.1063 38.2003 33.005C37.9981 32.9057 37.8243 32.7725 37.6788 32.6075C37.5314 32.4425 37.418 32.2532 37.3386 32.0375C37.263 31.8238 37.2252 31.6025 37.2252 31.3775C37.2252 31.1488 37.2649 30.9257 37.3462 30.71C37.4312 30.4963 37.5465 30.305 37.6939 30.14C37.8451 29.975 38.0208 29.8457 38.223 29.75C38.429 29.6563 38.6482 29.6075 38.8806 29.6075C39.1263 29.6075 39.3512 29.66 39.5534 29.765C39.7594 29.8663 39.9332 30.0013 40.075 30.17C40.2205 30.335 40.3339 30.5263 40.4151 30.74C40.4945 30.95 40.5361 31.1657 40.5361 31.385C40.5361 31.6213 40.4926 31.8463 40.4076 32.06C40.3206 32.27 40.2054 32.4575 40.0598 32.6225C39.9124 32.7838 39.7367 32.9132 39.5307 33.0125C39.3285 33.1082 39.1112 33.155 38.8806 33.155ZM37.5729 31.3775C37.5729 31.5725 37.6032 31.7582 37.6636 31.9325C37.7279 32.1088 37.8186 32.2663 37.9358 32.405C38.051 32.54 38.1871 32.6488 38.344 32.7275C38.5046 32.8082 38.6841 32.8475 38.8806 32.8475C39.0772 32.8475 39.2548 32.8063 39.4173 32.72C39.5836 32.6357 39.7216 32.5232 39.8331 32.3825C39.9427 32.2438 40.0296 32.0882 40.0901 31.9175C40.1543 31.7432 40.1883 31.5632 40.1883 31.3775C40.1883 31.1882 40.1543 31.0063 40.0901 30.83C40.0239 30.6557 39.9332 30.5 39.818 30.365C39.7008 30.23 39.5628 30.1232 39.4022 30.0425C39.2454 29.9638 39.0715 29.9225 38.8806 29.9225C38.6784 29.9225 38.497 29.9657 38.3364 30.05C38.1739 30.1307 38.0359 30.2413 37.9206 30.38C37.8092 30.515 37.7241 30.6707 37.6636 30.845C37.6032 31.0213 37.5729 31.1975 37.5729 31.3775Z" fill="white"/>
<path d="M42.1447 32.69C42.2202 32.7406 42.3128 32.7856 42.4243 32.825C42.5396 32.8606 42.67 32.8775 42.8174 32.8775C42.9932 32.8775 43.1349 32.8456 43.2407 32.78C43.3503 32.7163 43.4335 32.6206 43.4902 32.495C43.545 32.3713 43.5809 32.2175 43.596 32.0375C43.6149 31.8538 43.6262 31.6438 43.6262 31.4075V29.63H43.9739V31.4075C43.9739 31.6775 43.9607 31.9231 43.9361 32.1425C43.9097 32.3581 43.8568 32.5438 43.7774 32.6975C43.6961 32.8531 43.5809 32.9731 43.4297 33.0575C43.2785 33.1419 43.0744 33.185 42.8174 33.185C42.515 33.185 42.258 33.1138 42.0464 32.9675L42.1447 32.69Z" fill="white"/>
<path d="M48.4121 32.825V33.1325H46.0461V29.63H48.3743V29.9375H46.3939V31.1975H48.1173V31.49H46.3939V32.825H48.4121Z" fill="white"/>
</svg>
