<svg width="20" height="21" viewBox="0 0 20 21" fill="none" xmlns="http://www.w3.org/2000/svg">
<g id="fluent:ios-arrow-24-regular">
<path id="Vector" d="M10 17.1746L2.7275 10.098C2.6689 10.0397 2.59932 9.99365 2.52279 9.96245C2.44626 9.93126 2.36431 9.91555 2.28167 9.91623C2.19904 9.91692 2.11735 9.93399 2.04136 9.96645C1.96536 9.99891 1.89655 10.0461 1.83892 10.1054C1.78129 10.1646 1.73598 10.2347 1.70561 10.3115C1.67523 10.3884 1.66041 10.4705 1.66198 10.5531C1.66355 10.6357 1.6815 10.7172 1.71477 10.7929C1.74805 10.8685 1.79599 10.9368 1.85584 10.9938L9.56417 18.4938C9.68085 18.6073 9.83721 18.6708 10 18.6708C10.1628 18.6708 10.3192 18.6073 10.4358 18.4938L18.1442 10.9938C18.204 10.9368 18.252 10.8685 18.2852 10.7929C18.3185 10.7172 18.3365 10.6357 18.338 10.5531C18.3396 10.4705 18.3248 10.3884 18.2944 10.3115C18.264 10.2347 18.2187 10.1646 18.1611 10.1054C18.1035 10.0461 18.0346 9.99891 17.9587 9.96645C17.8827 9.93399 17.801 9.91692 17.7183 9.91623C17.6357 9.91555 17.5537 9.93126 17.4772 9.96245C17.4007 9.99365 17.3311 10.0397 17.2725 10.098L10 17.1746Z" fill="#FFC700"/>
</g>
</svg>
