<svg width="103" height="26" viewBox="0 0 103 26" fill="none" xmlns="http://www.w3.org/2000/svg">
<g clip-path="url(#clip0_16_1399)">
<path d="M14.2468 2.83999H13.6062V0.753113H14.2468V2.83999Z" fill="#FDCB1A"/>
<path d="M14.2468 20.0806H13.6062V17.9938H14.2468V20.0806Z" fill="#FDCB1A"/>
<path d="M21.562 10.7356V10.1H23.6653V10.7356H21.562Z" fill="#FDCB1A"/>
<path d="M4.18579 10.7356V10.1H6.29097V10.7356H4.18579Z" fill="#FDCB1A"/>
<path d="M21.5677 14.4763L21.7907 14.0225L22.7583 14.4913L22.5353 14.945L21.5677 14.4763Z" fill="#FDCB1A"/>
<path d="M5.0343 6.45875L5.24406 6.03125L6.18894 6.49063L5.97918 6.91625L5.0343 6.45875Z" fill="#FDCB1A"/>
<path d="M18.0264 18.035L18.4667 17.7819L19.0071 18.7044L18.5668 18.9594L18.0264 18.035Z" fill="#FDCB1A"/>
<path d="M8.7854 2.24374L9.19926 2.00562L9.7265 2.90749L9.31264 3.14749L8.7854 2.24374Z" fill="#FDCB1A"/>
<path d="M9.77943 18.0425L10.2349 18.2694L9.75108 19.2237L9.29565 18.9969L9.77943 18.0425Z" fill="#FDCB1A"/>
<path d="M18.0396 1.72626L18.4667 1.93813L17.9942 2.87188L17.5671 2.65813L18.0396 1.72626Z" fill="#FDCB1A"/>
<path d="M6.11149 14.2569L6.3496 14.705L5.39717 15.2019L5.15906 14.7538L6.11149 14.2569Z" fill="#FDCB1A"/>
<path d="M22.3954 5.74811L22.6165 6.16811L21.6867 6.65373L21.4637 6.23373L22.3954 5.74811Z" fill="#FDCB1A"/>
<path d="M15.2598 10.7356C15.2598 11.4668 14.6626 12.0593 13.9256 12.0593C13.1886 12.0593 12.5914 11.4668 12.5914 10.7356C12.5914 10.0043 13.1886 9.40997 13.9256 9.40997C14.6626 9.40997 15.2598 10.0043 15.2598 10.7356Z" fill="#FDCB1A"/>
<path d="M13.9955 11.1725C13.7574 11.1725 13.5665 10.9625 13.5665 10.7037C13.5665 10.445 13.7574 10.235 13.9955 10.235H20.9668C21.203 10.235 21.3958 10.445 21.3958 10.7037C21.3958 10.9625 21.203 11.1725 20.9668 11.1725H13.9955Z" fill="#FDCB1A"/>
<path d="M14.211 10.5388C14.0409 10.7019 13.8481 10.7788 13.7801 10.7094C13.7121 10.64 13.7952 10.4525 13.9653 10.2875L18.9807 5.48377C19.1508 5.32064 19.3454 5.24377 19.4116 5.31314C19.4796 5.38252 19.3964 5.57189 19.2264 5.73502L14.211 10.5388Z" fill="#FDCB1A"/>
<path d="M14.2544 10.3794C14.3867 10.5106 14.3432 10.7637 14.1599 10.9475C13.9766 11.1294 13.7196 11.1725 13.5873 11.0412L9.70391 7.18812C9.57162 7.05874 9.61509 6.80374 9.79839 6.61999C9.98359 6.43812 10.2387 6.39499 10.371 6.52624L14.2544 10.3794Z" fill="#FDCB1A"/>
<mask id="mask0_16_1399" style="mask-type:luminance" maskUnits="userSpaceOnUse" x="0" y="-3" width="27" height="28">
<path d="M0.289185 -2.32001H26.3356V24.08H0.289185V-2.32001Z" fill="white"/>
</mask>
<g mask="url(#mask0_16_1399)">
<path d="M14.9631 21.9743C8.0844 21.9987 2.41515 17.9637 2.32633 9.7981C2.26208 3.72685 8.18645 -1.60003 14.2072 -1.98815C13.9388 -2.00503 13.6686 -2.0144 13.3965 -2.0144C6.15875 -2.0144 0.289185 3.80747 0.289185 10.9906C0.289185 18.1718 6.15875 23.9937 13.3965 23.9937C20.6361 23.9937 26.5038 18.1718 26.5038 10.9906C26.5038 10.7187 26.4943 10.4525 26.4773 10.1862C26.0861 16.1581 21.0821 21.9518 14.9631 21.9743Z" fill="#FDCB1A"/>
</g>
<path d="M33.406 1.39948H36.4296C37.6579 1.39948 38.5329 1.56072 39.0526 1.87948C39.576 2.19448 39.9143 2.76448 40.0655 3.58948C40.2204 4.41448 40.2998 5.7851 40.2998 7.69948C40.2998 9.61573 40.2204 10.9845 40.0655 11.8095C39.9143 12.6307 39.576 13.2007 39.0526 13.5195C38.5329 13.8345 37.6579 13.992 36.4296 13.992H33.406V1.39948ZM36.3767 12.7845C37.2233 12.7845 37.8016 12.6982 38.1153 12.522C38.4271 12.342 38.6387 11.9257 38.7502 11.2695C38.8598 10.6095 38.9165 9.42073 38.9165 7.69948C38.9165 5.98948 38.8598 4.8026 38.7502 4.13698C38.6387 3.47323 38.4252 3.05323 38.1077 2.87698C37.7902 2.69698 37.212 2.60698 36.3767 2.60698H34.7666V12.7845H36.3767Z" fill="white"/>
<path d="M44.1195 13.992V1.39948H45.5028V13.992H44.1195Z" fill="white"/>
<path d="M52.4757 14.142C51.3305 14.142 50.2798 14.0614 49.3236 13.902V12.7095C49.7507 12.7695 50.2231 12.822 50.7371 12.867C51.2549 12.9083 51.6933 12.927 52.0524 12.927C52.5399 12.927 52.9292 12.8951 53.2165 12.8295C53.5075 12.7658 53.7475 12.6458 53.9346 12.4695C54.1047 12.3158 54.218 12.0851 54.2747 11.7795C54.3295 11.4758 54.3579 11.0651 54.3579 10.5495C54.3579 9.88014 54.3314 9.41327 54.2823 9.14702C54.2313 8.87702 54.1179 8.68577 53.9421 8.56952C53.7645 8.44952 53.447 8.35577 52.9897 8.28452L50.8505 7.95452C50.3365 7.87014 49.9472 7.69764 49.6864 7.43702C49.4294 7.17264 49.2593 6.83327 49.18 6.41702C49.1044 6.00264 49.0666 5.44764 49.0666 4.75202C49.0666 3.48264 49.3349 2.58264 49.8754 2.05202C50.414 1.52327 51.2814 1.25702 52.4757 1.25702C53.619 1.25702 54.5544 1.35452 55.2801 1.54952V2.68202C54.4524 2.53764 53.6209 2.46452 52.7856 2.46452C52.2603 2.46452 51.8445 2.50952 51.5384 2.59952C51.2304 2.68952 50.996 2.82827 50.8354 3.01202C50.6729 3.19764 50.567 3.42452 50.5179 3.69452C50.4726 3.96077 50.4499 4.30014 50.4499 4.71452C50.4499 5.27514 50.4726 5.68014 50.5179 5.92952C50.567 6.18077 50.6653 6.35514 50.8127 6.45452C50.9639 6.55014 51.2096 6.62702 51.5535 6.68702L53.6171 7.01702C54.1349 7.10327 54.5412 7.23264 54.8341 7.40702C55.1308 7.57764 55.3595 7.87014 55.522 8.28452C55.6675 8.63514 55.7412 9.33452 55.7412 10.3845C55.7412 11.3258 55.6372 12.0645 55.4313 12.6045C55.2291 13.1408 54.8908 13.5308 54.4184 13.7745C53.944 14.0183 53.2958 14.142 52.4757 14.142Z" fill="white"/>
<path d="M61.1048 13.992V2.64448H58.2853V1.39948H65.3151V2.64448H62.4881V13.992H61.1048Z" fill="white"/>
<path d="M71.8791 14.142C70.6734 14.142 69.8117 13.977 69.2939 13.647C68.7799 13.317 68.4473 12.7358 68.2961 11.8995C68.1487 11.0595 68.0769 9.66077 68.0769 7.69952C68.0769 5.73452 68.1487 4.33577 68.2961 3.49952C68.4473 2.66514 68.7799 2.08202 69.2939 1.75202C69.8117 1.42202 70.6734 1.25702 71.8791 1.25702C73.0829 1.25702 73.9427 1.42202 74.4567 1.75202C74.9745 2.08202 75.3071 2.66514 75.4545 3.49952C75.6057 4.33577 75.6813 5.73452 75.6813 7.69952C75.6813 9.66077 75.6057 11.0595 75.4545 11.8995C75.3071 12.7358 74.9745 13.317 74.4567 13.647C73.9427 13.977 73.0829 14.142 71.8791 14.142ZM71.8791 12.927C72.6652 12.927 73.2114 12.837 73.5194 12.657C73.8255 12.4733 74.0277 12.0401 74.1241 11.3595C74.2243 10.6751 74.2753 9.45452 74.2753 7.69952C74.2753 5.94077 74.2243 4.72014 74.1241 4.03952C74.0277 3.35514 73.8255 2.92202 73.5194 2.74202C73.2114 2.55827 72.6652 2.46452 71.8791 2.46452C71.0929 2.46452 70.5449 2.55827 70.2388 2.74202C69.9307 2.92202 69.7267 3.35514 69.6265 4.03952C69.5301 4.72014 69.4829 5.94077 69.4829 7.69952C69.4829 9.45452 69.5301 10.6751 69.6265 11.3595C69.7267 12.0401 69.9307 12.4733 70.2388 12.657C70.5449 12.837 71.0929 12.927 71.8791 12.927Z" fill="white"/>
<path d="M79.4423 1.39948H83.2067C84.0628 1.39948 84.7053 1.56823 85.1342 1.90198C85.567 2.2376 85.8467 2.67823 85.9733 3.22198C86.1037 3.7676 86.1698 4.47823 86.1698 5.35198C86.1698 6.20698 86.1037 6.90823 85.9733 7.45198C85.8467 7.99198 85.567 8.43448 85.1342 8.77948C84.7053 9.12073 84.0628 9.28948 83.2067 9.28948H80.8256V13.992H79.4423V1.39948ZM82.8363 8.09698C83.4259 8.09698 83.8587 7.99948 84.1365 7.80448C84.4124 7.60948 84.59 7.32823 84.6656 6.95698C84.745 6.58198 84.7865 6.0476 84.7865 5.35198C84.7865 4.64698 84.745 4.11072 84.6656 3.73948C84.59 3.36448 84.4161 3.08323 84.144 2.89198C83.8719 2.7026 83.441 2.60698 82.8514 2.60698H80.8256V8.09698H82.8363Z" fill="white"/>
<path d="M89.5657 13.992V1.39948H90.949V13.992H89.5657Z" fill="white"/>
<path d="M101.134 13.992L100.242 10.497H96.3571L95.4878 13.992H94.1045L97.4229 1.39948H99.2295L102.548 13.992H101.134ZM98.3451 3.06448H98.2544L96.6897 9.28948H99.9174L98.3451 3.06448Z" fill="white"/>
<path d="M35.3411 19.63V23.1325H35.0009V21.4975H32.9071V23.1325H32.5594V19.63H32.9071V21.19H35.0009V19.63H35.3411Z" fill="white"/>
<path d="M38.8806 23.155C38.6331 23.155 38.4063 23.1063 38.2003 23.005C37.9981 22.9057 37.8243 22.7725 37.6788 22.6075C37.5314 22.4425 37.418 22.2532 37.3386 22.0375C37.263 21.8238 37.2252 21.6025 37.2252 21.3775C37.2252 21.1488 37.2649 20.9257 37.3462 20.71C37.4312 20.4963 37.5465 20.305 37.6939 20.14C37.8451 19.975 38.0208 19.8457 38.223 19.75C38.429 19.6563 38.6482 19.6075 38.8806 19.6075C39.1263 19.6075 39.3512 19.66 39.5534 19.765C39.7594 19.8663 39.9332 20.0013 40.075 20.17C40.2205 20.335 40.3339 20.5263 40.4151 20.74C40.4945 20.95 40.5361 21.1657 40.5361 21.385C40.5361 21.6213 40.4926 21.8463 40.4076 22.06C40.3206 22.27 40.2054 22.4575 40.0598 22.6225C39.9124 22.7838 39.7367 22.9132 39.5307 23.0125C39.3285 23.1082 39.1112 23.155 38.8806 23.155ZM37.5729 21.3775C37.5729 21.5725 37.6032 21.7582 37.6636 21.9325C37.7279 22.1088 37.8186 22.2663 37.9358 22.405C38.051 22.54 38.1871 22.6488 38.344 22.7275C38.5046 22.8082 38.6841 22.8475 38.8806 22.8475C39.0772 22.8475 39.2548 22.8063 39.4173 22.72C39.5836 22.6357 39.7216 22.5232 39.8331 22.3825C39.9427 22.2438 40.0296 22.0882 40.0901 21.9175C40.1543 21.7432 40.1883 21.5632 40.1883 21.3775C40.1883 21.1882 40.1543 21.0063 40.0901 20.83C40.0239 20.6557 39.9332 20.5 39.818 20.365C39.7008 20.23 39.5628 20.1232 39.4022 20.0425C39.2454 19.9638 39.0715 19.9225 38.8806 19.9225C38.6784 19.9225 38.497 19.9657 38.3364 20.05C38.1739 20.1307 38.0359 20.2413 37.9206 20.38C37.8092 20.515 37.7241 20.6707 37.6636 20.845C37.6032 21.0213 37.5729 21.1975 37.5729 21.3775Z" fill="white"/>
<path d="M42.1446 22.69C42.2202 22.7406 42.3128 22.7856 42.4243 22.825C42.5396 22.8606 42.6699 22.8775 42.8173 22.8775C42.9931 22.8775 43.1348 22.8456 43.2406 22.78C43.3503 22.7163 43.4334 22.6206 43.4901 22.495C43.5449 22.3713 43.5808 22.2175 43.5959 22.0375C43.6148 21.8538 43.6262 21.6438 43.6262 21.4075V19.63H43.9739V21.4075C43.9739 21.6775 43.9606 21.9231 43.9361 22.1425C43.9096 22.3581 43.8567 22.5438 43.7773 22.6975C43.6961 22.8531 43.5808 22.9731 43.4296 23.0575C43.2784 23.1419 43.0743 23.185 42.8173 23.185C42.515 23.185 42.258 23.1138 42.0463 22.9675L42.1446 22.69Z" fill="white"/>
<path d="M48.412 22.825V23.1325H46.046V19.63H48.3742V19.9375H46.3937V21.1975H48.1172V21.49H46.3937V22.825H48.412Z" fill="white"/>
</g>
<defs>
<clipPath id="clip0_16_1399">
<rect width="103" height="25" fill="white" transform="translate(0 0.5)"/>
</clipPath>
</defs>
</svg>
